# Blender v2.82 (sub 7) OBJ File: 'chalet_quick.blend'
# www.blender.org
mtllib chalet_quick.mtl
o building_003_building_003_mesh
v 1.250190 1.929188 -4.182110
v 0.463050 1.929189 -4.182110
v 0.463052 0.294810 -4.182110
v 1.250260 0.294741 -4.182110
v 2.122438 0.160000 -4.244877
v -0.463052 1.929190 -4.182110
v -2.122438 2.160000 4.244877
v 2.122438 2.160000 4.244877
v 2.122438 2.160000 -4.244877
v -2.122438 2.160000 -4.244877
v -2.122438 0.000000 -4.244877
v -2.122438 0.000000 4.244877
v 2.122438 0.000000 4.244877
v 2.122438 0.000000 -4.244877
v -2.122438 0.160000 4.244877
v 2.122438 0.160000 4.244877
v -1.250260 1.929259 -4.182110
v -2.122438 0.160000 -4.244877
v 0.000000 3.160000 4.244877
v 2.143663 2.150000 4.287325
v 0.000000 3.160000 -4.244877
v -2.143663 2.150000 4.287325
v 2.143663 2.150000 -4.287325
v -2.143663 2.150000 -4.287325
v 0.000000 3.160000 4.287325
v 0.000000 3.160000 -4.287325
v 2.143663 2.250000 4.287325
v -2.143663 2.250000 4.287325
v 2.143663 2.250000 -4.287325
v -2.143663 2.250000 -4.287325
v 0.000000 3.260000 4.287325
v 0.000000 3.260000 -4.287325
v 1.385000 0.160000 -4.244877
v -1.385000 0.160000 -4.244877
v 1.385000 2.160000 -4.244877
v -1.385000 2.160000 -4.244877
v -1.250190 0.294812 -4.182110
v 1.385000 2.064000 -4.244877
v -0.463050 0.294811 -4.182110
v -1.385000 2.064000 -4.244877
v -1.285000 0.160000 -4.244877
v 1.285000 0.160000 -4.244877
v -1.285000 2.064000 -4.244877
v 1.285000 2.064000 -4.244877
v 1.285000 0.260000 -4.244877
v 1.285000 1.964000 -4.244877
v -1.285000 0.260000 -4.244877
v -1.285000 1.964000 -4.244877
v 1.285000 0.260000 -4.194877
v 0.393569 1.929189 -4.182110
v -1.285000 1.964000 -4.194877
v -0.393569 1.929189 -4.182110
v -0.393569 0.294811 -4.182110
v -1.284929 0.260071 -4.194877
v 0.393569 0.294811 -4.182110
v 1.284929 1.963929 -4.194877
v -0.428310 0.260071 -4.194877
v 0.428310 0.260071 -4.194877
v -0.428310 1.963929 -4.194877
v 0.428310 1.963929 -4.194877
v 2.122438 2.160000 -0.955000
v 2.122438 2.160000 -3.725000
v 2.059672 0.294811 -2.733569
v 2.122438 0.160000 -3.725000
v 2.122438 0.160000 -0.955000
v 2.122438 2.064000 -0.955000
v 2.059672 0.294811 -1.946430
v 2.122438 2.064000 -3.725000
v 2.122438 0.160000 -3.625000
v 2.122438 0.160000 -1.055000
v 2.122438 2.064000 -3.625000
v 2.122438 2.064000 -1.055000
v 2.122438 0.260000 -1.055000
v 2.122438 1.964000 -1.055000
v 2.122438 0.260000 -3.625000
v 2.122438 1.964000 -3.625000
v 2.072438 0.260000 -1.055000
v 2.059672 1.929189 -2.803050
v 2.059672 1.929189 -3.590189
v 2.072438 1.964000 -1.055000
v 2.059672 0.294811 -3.590189
v 2.072438 0.260071 -3.624929
v 2.072438 1.963929 -3.624929
v 2.059672 0.294811 -2.803050
v 2.072438 0.260071 -2.768309
v 2.072438 0.260071 -1.911690
v 2.072438 1.963929 -2.768309
v 2.072438 1.963929 -1.911690
v 2.059672 1.929189 -2.733569
v 2.059672 1.929189 -1.946430
v 2.059672 0.294742 -1.089739
v 2.059672 0.294810 -1.876948
v 2.059672 1.929190 -1.876948
v 2.059672 1.929258 -1.089739
v 2.122438 2.160000 1.525000
v 2.122438 2.160000 -0.105000
v 2.122438 0.160000 1.525000
v 2.122438 0.160000 -0.105000
v 2.122438 0.880000 1.525000
v 2.122438 1.884000 1.525000
v 2.122438 0.880000 -0.105000
v 2.122438 1.884000 -0.105000
v 2.122438 0.880000 -0.005000
v 2.122438 0.880000 1.425000
v 2.122438 1.884000 -0.005000
v 2.122438 1.884000 1.425000
v 2.122438 0.980000 1.425000
v 2.122438 1.784000 1.425000
v 2.122438 0.980000 -0.005000
v 2.122438 1.784000 -0.005000
v 2.072438 0.980000 1.425000
v 2.072438 0.980000 -0.005000
v 2.072438 1.784000 -0.005000
v 2.072438 1.784000 1.425000
v 2.122438 2.160000 2.804938
v 2.122438 2.160000 1.804938
v 2.122438 0.160000 2.804938
v 2.122438 0.160000 1.804938
v 2.122438 2.110000 2.804938
v 2.122438 2.110000 1.804938
v 2.122438 0.160000 2.704938
v 2.122438 0.160000 1.904938
v 2.122438 2.110000 1.904938
v 2.122438 2.110000 2.704938
v 2.122438 2.010000 2.704938
v 2.122438 2.010000 1.904938
v 2.072438 0.160000 2.704938
v 2.072438 0.160000 1.904938
v 2.072438 2.010000 1.904938
v 2.072438 2.010000 2.704938
v 2.122438 2.160000 3.844938
v 2.122438 2.160000 3.264938
v 2.122438 0.160000 3.844938
v 2.122438 0.160000 3.264938
v 2.122438 1.390000 3.844938
v 2.122438 1.914000 3.844938
v 2.122438 1.390000 3.264938
v 2.122438 1.914000 3.264938
v 2.122438 1.390000 3.334938
v 2.122438 1.390000 3.774939
v 2.122438 1.914000 3.334938
v 2.122438 1.914000 3.774939
v 2.122438 1.460000 3.774939
v 2.122438 1.844000 3.774939
v 2.122438 1.460000 3.334938
v 2.122438 1.844000 3.334938
v 2.072438 1.460000 3.774939
v 2.072438 1.460000 3.334938
v 2.072438 1.844000 3.334938
v 2.072438 1.844000 3.774939
v -0.660031 0.160000 4.244877
v 0.039969 0.160000 4.244877
v -0.660031 2.160000 4.244877
v 0.039969 2.160000 4.244877
v -0.660031 1.020000 4.244877
v -0.660031 2.024000 4.244877
v 0.039969 1.020000 4.244877
v 0.039969 2.024000 4.244877
v -0.030031 1.020000 4.244877
v -0.590031 1.020000 4.244877
v -0.030031 2.024000 4.244877
v -0.590031 2.024000 4.244877
v -0.590031 1.090000 4.244877
v -0.590031 1.954000 4.244877
v -0.030031 1.090000 4.244877
v -0.030031 1.954000 4.244877
v -0.590031 1.090000 4.194877
v -0.030031 1.090000 4.194877
v -0.030031 1.954000 4.194877
v -0.590031 1.954000 4.194877
v -2.122438 0.160000 0.639969
v -2.122438 0.160000 1.219969
v -2.122438 2.160000 0.639969
v -2.122438 2.160000 1.219969
v -2.122438 1.020000 0.639969
v -2.122438 2.024000 0.639969
v -2.122438 1.020000 1.219969
v -2.122438 2.024000 1.219969
v -2.122438 1.020000 1.149969
v -2.122438 1.020000 0.709969
v -2.122438 2.024000 1.149969
v -2.122438 2.024000 0.709969
v -2.122438 1.090000 0.709969
v -2.122438 1.954000 0.709969
v -2.122438 1.090000 1.149969
v -2.122438 1.954000 1.149969
v -2.072438 1.090000 0.709969
v -2.072438 1.090000 1.149969
v -2.072438 1.954000 1.149969
v -2.072438 1.954000 0.709969
v -2.122438 0.160000 -1.822485
v -2.122438 0.160000 0.077515
v -2.122438 2.160000 -1.822485
v -2.122438 2.160000 0.077515
v -2.122438 0.744000 -1.822485
v -2.122438 2.020000 -1.822485
v -2.122438 0.744000 0.077515
v -2.122438 2.020000 0.077515
v -2.122438 0.744000 0.007515
v -2.122438 0.744000 -1.752485
v -2.122438 2.020000 0.007515
v -2.122438 2.020000 -1.752485
v -2.122438 0.814000 -1.752485
v -2.122438 1.950000 -1.752485
v -2.122438 0.814000 0.007515
v -2.122438 1.950000 0.007515
v -2.072438 0.814000 -1.752485
v -2.072438 0.814000 0.007515
v -2.072438 1.950000 0.007515
v -2.072438 1.950000 -1.752485
v -2.122438 0.160000 -3.622485
v -2.122438 0.160000 -2.922485
v -2.122438 2.160000 -3.622485
v -2.122438 2.160000 -2.922485
v -2.122438 0.880500 -3.622485
v -2.122438 1.883500 -3.622485
v -2.122438 0.880500 -2.922485
v -2.122438 1.883500 -2.922485
v -2.122438 0.880500 -2.992485
v -2.122438 0.880500 -3.552485
v -2.122438 1.883500 -2.992485
v -2.122438 1.883500 -3.552485
v -2.122438 0.950500 -3.552485
v -2.122438 1.813500 -3.552485
v -2.122438 0.950500 -2.992485
v -2.122438 1.813500 -2.992485
v -2.072438 0.950500 -3.552485
v -2.072438 0.950500 -2.992485
v -2.072438 1.813500 -2.992485
v -2.072438 1.813500 -3.552485
v 2.122438 0.160000 1.804938
v 2.122438 0.040000 1.804938
v 2.122438 0.160000 2.804938
v 2.122438 0.040000 2.804938
v 2.322438 0.160000 2.804938
v 2.322438 0.040000 2.804938
v 2.322438 0.040000 1.804938
v 2.322438 0.160000 1.804938
v 2.122438 -0.080000 1.804938
v 2.122438 -0.200000 1.804938
v 2.122438 -0.080000 2.804938
v 2.522439 0.040000 2.804938
v 2.522439 -0.080000 2.804938
v 2.522439 -0.080000 1.804938
v 2.522439 0.040000 1.804938
v 2.122438 -0.200000 2.804938
v 2.722439 -0.080000 2.804938
v 2.722439 -0.200000 2.804938
v 2.722439 -0.200000 1.804938
v 2.722439 -0.080000 1.804938
v 2.122438 0.160000 -3.635000
v 2.122438 0.040000 -3.635000
v 2.122438 0.160000 -1.045000
v 2.122438 0.040000 -1.045000
v 2.322438 0.160000 -1.045000
v 2.322438 0.040000 -1.045000
v 2.322438 0.040000 -3.635000
v 2.322438 0.160000 -3.635000
v 2.122438 -0.080000 -3.635000
v 2.122438 -0.200000 -3.635000
v 2.122438 -0.080000 -1.045000
v 2.522439 0.040000 -1.045000
v 2.522439 -0.080000 -1.045000
v 2.522439 -0.080000 -3.635000
v 2.522439 0.040000 -3.635000
v 2.122438 -0.200000 -1.045000
v 2.722439 -0.080000 -1.045000
v 2.722439 -0.200000 -1.045000
v 2.722439 -0.200000 -3.635000
v 2.722439 -0.080000 -3.635000
vn -0.4262 -0.9046 0.0000
vn 0.0000 0.3449 -0.9386
vn 1.0000 0.0000 0.0000
vn -1.0000 0.0000 0.0000
vn 0.0000 0.0000 -1.0000
vn 0.0000 0.0000 1.0000
vn -0.3449 -0.0000 -0.9386
vn -0.0000 -0.3449 -0.9386
vn 0.3449 0.0000 -0.9386
vn 0.4262 -0.9046 0.0000
vn 0.4262 0.9046 0.0000
vn -0.4262 0.9046 0.0000
vn 0.0000 1.0000 -0.0007
vn -0.0000 -1.0000 -0.0007
vn 1.0000 0.0000 -0.0007
vn -1.0000 -0.0000 -0.0007
vn 1.0000 -0.0079 0.0000
vn 0.0007 -1.0000 0.0000
vn 0.0014 0.0000 1.0000
vn 0.0007 1.0000 0.0000
vn 0.9386 0.0000 0.3449
vn 1.0000 0.0059 0.0000
vn 0.9386 0.3449 0.0000
vn 0.9386 -0.3449 0.0000
vn 0.9386 0.0000 -0.3449
vn 0.9386 0.0000 -0.3450
vn 0.0000 1.0000 0.0000
vn 0.0000 -1.0000 -0.0000
usemtl None
s off
f 9//1 21//1 26//1 23//1
f 49//2 58//2 3//2 4//2
f 13//3 14//3 5//3 64//3 65//3 98//3 97//3 118//3 122//3 121//3 117//3 134//3 133//3 16//3
f 11//4 12//4 15//4 172//4 171//4 192//4 191//4 212//4 211//4 18//4
f 14//5 11//5 18//5 5//5
f 12//6 13//6 16//6 152//6 151//6 15//6
f 34//5 18//5 10//5 36//5 40//5
f 152//6 16//6 8//6 154//6 158//6 157//6
f 172//4 15//4 7//4 174//4 178//4 177//4
f 64//3 5//3 9//3 62//3 68//3
f 59//7 57//7 39//7 6//7
f 51//8 59//8 6//8 17//8
f 54//9 51//9 17//9 37//9
f 57//2 54//2 37//2 39//2
f 60//7 58//7 55//7 50//7
f 5//6 18//6 34//6 33//6
f 59//8 60//8 50//8 52//8
f 8//1 131//1 132//1 115//1 116//1 95//1 96//1 61//1 62//1 9//1 23//1 20//1
f 19//1 8//1 20//1 25//1
f 10//10 213//10 214//10 193//10 194//10 173//10 174//10 7//10 22//10 24//10
f 9//5 35//5 36//5 10//5 21//5
f 7//6 153//6 154//6 8//6 19//6
f 7//10 19//10 25//10 22//10
f 21//10 10//10 24//10 26//10
f 24//4 22//4 28//4 30//4
f 22//6 25//6 31//6 28//6
f 23//5 26//5 32//5 29//5
f 25//6 20//6 27//6 31//6
f 20//3 23//3 29//3 27//3
f 26//5 24//5 30//5 32//5
f 29//11 32//11 31//11 27//11
f 32//12 30//12 28//12 31//12
f 5//5 33//5 38//5 35//5 9//5
f 38//5 44//5 43//5 40//5 36//5 35//5
f 33//5 34//5 41//5 42//5
f 41//5 34//5 40//5 43//5 48//5 47//5
f 33//5 42//5 45//5 46//5 44//5 38//5
f 46//5 48//5 43//5 44//5
f 42//5 41//5 47//5 45//5
f 49//5 54//5 57//5 58//5
f 39//5 37//5 17//5 6//5
f 45//13 47//13 54//13 49//13
f 48//14 46//14 56//14 51//14
f 47//15 48//15 51//15 54//15
f 46//16 45//16 49//16 56//16
f 57//9 59//9 52//9 53//9
f 51//5 56//5 60//5 59//5
f 58//2 57//2 53//2 55//2
f 4//5 3//5 2//5 1//5
f 55//5 53//5 52//5 50//5
f 58//9 60//9 2//9 3//9
f 60//8 56//8 1//8 2//8
f 56//7 49//7 4//7 1//7
f 98//3 65//3 66//3 61//3 96//3 102//3 101//3
f 66//3 72//3 71//3 68//3 62//3 61//3
f 65//3 64//3 69//3 70//3
f 69//3 64//3 68//3 71//3 76//3 75//3
f 65//3 70//3 73//3 74//3 72//3 66//3
f 74//3 76//3 71//3 72//3
f 70//3 69//3 75//3 73//3
f 77//17 82//17 85//17 86//17
f 84//3 81//3 79//3 78//3
f 76//18 74//18 80//18 83//18
f 75//19 76//19 83//19 82//19
f 74//5 73//5 77//5 80//5
f 73//20 75//20 82//20 77//20
f 82//21 83//21 79//21 81//21
f 83//22 80//22 88//22 87//22
f 85//23 82//23 81//23 84//23
f 91//3 92//3 93//3 94//3
f 67//3 63//3 89//3 90//3
f 83//24 87//24 78//24 79//24
f 87//25 85//25 84//25 78//25
f 86//23 85//23 63//23 67//23
f 85//21 87//21 89//21 63//21
f 87//24 88//24 90//24 89//24
f 88//25 86//25 67//25 90//25
f 77//23 86//23 92//23 91//23
f 86//21 88//21 93//21 92//21
f 88//24 80//24 94//24 93//24
f 80//26 77//26 91//26 94//26
f 118//3 97//3 99//3 100//3 95//3 116//3 120//3
f 100//3 106//3 105//3 102//3 96//3 95//3
f 97//3 98//3 101//3 103//3 104//3 99//3
f 103//3 101//3 102//3 105//3 110//3 109//3
f 99//3 104//3 107//3 108//3 106//3 100//3
f 108//3 110//3 105//3 106//3
f 104//3 103//3 109//3 107//3
f 111//3 112//3 113//3 114//3
f 107//27 109//27 112//27 111//27
f 110//28 108//28 114//28 113//28
f 109//6 110//6 113//6 112//6
f 108//5 107//5 111//5 114//5
f 134//3 117//3 119//3 115//3 132//3 138//3 137//3
f 119//3 124//3 123//3 120//3 116//3 115//3
f 122//3 118//3 120//3 123//3 126//3
f 117//3 121//3 125//3 124//3 119//3
f 125//3 126//3 123//3 124//3
f 127//3 128//3 129//3 130//3
f 121//27 122//27 128//27 127//27
f 126//28 125//28 130//28 129//28
f 125//5 121//5 127//5 130//5
f 122//6 126//6 129//6 128//6
f 16//3 133//3 135//3 136//3 131//3 8//3
f 136//3 142//3 141//3 138//3 132//3 131//3
f 133//3 134//3 137//3 139//3 140//3 135//3
f 139//3 137//3 138//3 141//3 146//3 145//3
f 135//3 140//3 143//3 144//3 142//3 136//3
f 144//3 146//3 141//3 142//3
f 140//3 139//3 145//3 143//3
f 147//3 148//3 149//3 150//3
f 145//6 146//6 149//6 148//6
f 144//5 143//5 147//5 150//5
f 143//27 145//27 148//27 147//27
f 146//28 144//28 150//28 149//28
f 15//6 151//6 155//6 156//6 153//6 7//6
f 156//6 162//6 161//6 158//6 154//6 153//6
f 151//6 152//6 157//6 159//6 160//6 155//6
f 159//6 157//6 158//6 161//6 166//6 165//6
f 155//6 160//6 163//6 164//6 162//6 156//6
f 164//6 166//6 161//6 162//6
f 160//6 159//6 165//6 163//6
f 167//6 168//6 169//6 170//6
f 163//27 165//27 168//27 167//27
f 166//28 164//28 170//28 169//28
f 165//4 166//4 169//4 168//4
f 164//3 163//3 167//3 170//3
f 192//4 171//4 175//4 176//4 173//4 194//4 198//4 197//4
f 176//4 182//4 181//4 178//4 174//4 173//4
f 171//4 172//4 177//4 179//4 180//4 175//4
f 179//4 177//4 178//4 181//4 186//4 185//4
f 175//4 180//4 183//4 184//4 182//4 176//4
f 184//4 186//4 181//4 182//4
f 180//4 179//4 185//4 183//4
f 187//4 188//4 189//4 190//4
f 186//28 184//28 190//28 189//28
f 185//5 186//5 189//5 188//5
f 184//6 183//6 187//6 190//6
f 183//27 185//27 188//27 187//27
f 212//4 191//4 195//4 196//4 193//4 214//4 218//4 217//4
f 196//4 202//4 201//4 198//4 194//4 193//4
f 191//4 192//4 197//4 199//4 200//4 195//4
f 199//4 197//4 198//4 201//4 206//4 205//4
f 195//4 200//4 203//4 204//4 202//4 196//4
f 204//4 206//4 201//4 202//4
f 200//4 199//4 205//4 203//4
f 207//4 208//4 209//4 210//4
f 203//27 205//27 208//27 207//27
f 206//28 204//28 210//28 209//28
f 205//5 206//5 209//5 208//5
f 204//6 203//6 207//6 210//6
f 18//4 211//4 215//4 216//4 213//4 10//4
f 216//4 222//4 221//4 218//4 214//4 213//4
f 211//4 212//4 217//4 219//4 220//4 215//4
f 219//4 217//4 218//4 221//4 226//4 225//4
f 215//4 220//4 223//4 224//4 222//4 216//4
f 224//4 226//4 221//4 222//4
f 220//4 219//4 225//4 223//4
f 227//4 228//4 229//4 230//4
f 226//28 224//28 230//28 229//28
f 225//5 226//5 229//5 228//5
f 224//6 223//6 227//6 230//6
f 223//27 225//27 228//27 227//27
f 241//6 243//6 242//6 236//6 234//6
f 235//3 236//3 237//3 238//3
f 234//6 236//6 235//6 233//6
f 242//3 243//3 244//3 245//3
f 231//5 238//5 237//5 232//5
f 233//27 235//27 238//27 231//27
f 247//3 248//3 249//3 250//3
f 237//5 245//5 244//5 239//5 232//5
f 246//6 248//6 247//6 243//6 241//6
f 232//4 239//4 241//4 234//4
f 240//28 249//28 248//28 246//28
f 244//5 250//5 249//5 240//5 239//5
f 236//27 242//27 245//27 237//27
f 239//4 240//4 246//4 241//4
f 243//27 247//27 250//27 244//27
f 261//6 263//6 262//6 256//6 254//6
f 255//3 256//3 257//3 258//3
f 254//6 256//6 255//6 253//6
f 262//3 263//3 264//3 265//3
f 251//5 258//5 257//5 252//5
f 253//27 255//27 258//27 251//27
f 267//3 268//3 269//3 270//3
f 257//5 265//5 264//5 259//5 252//5
f 266//6 268//6 267//6 263//6 261//6
f 252//4 259//4 261//4 254//4
f 260//28 269//28 268//28 266//28
f 264//5 270//5 269//5 260//5 259//5
f 256//27 262//27 265//27 257//27
f 259//4 260//4 266//4 261//4
f 263//27 267//27 270//27 264//27
